<svg xmlns="http://www.w3.org/2000/svg" xmlns:xlink="http://www.w3.org/1999/xlink" xml:space="preserve" id="Layer_1" x="0" y="0" version="1.1" viewBox="0 0 400 400"><circle cx="200" cy="200" r="198" stroke="#fff" stroke-width="2"/><defs><circle id="c1" cx="200" cy="200" r="198"/></defs><clipPath id="x1"><use xlink:href="#c1" overflow="visible"/></clipPath><path fill="#fff" d="M459 206.7a106.2 106.2 0 0 1-35.7 5.3c-9.4-.8-18-2.3-25.3-3.6-5.7-1-10.8-2-15.2-2.3a83.2 83.2 0 0 0-16.5-2.7 58.7 58.7 0 0 0-29.8 7.8l-1.1-.5a80 80 0 0 1 12.3-5.3 56.7 56.7 0 0 1 36.7.2c18.8 4.3 44.7 10.2 74.6.5 22.7-7.4 47.7-23.7 73.6-56.5a687 687 0 0 0 25.4-34.7c18.4-26.2 31.8-45.3 51.8-51.8a52 52 0 0 1 16.2-2.4c12.7 0 27.4 4.8 43.1 9.8 9.6 3.1 19.5 6.3 30.1 8.8 8.1 1.9 14.7 1 22.6-1.5 3.8-1.2 8-2.9 12.7-4.7 6.3-2.5 13.4-5.3 22.3-8.2l.6-.2 1.6-.5a260.5 260.5 0 0 0-26 10.3l-3.1 1.4c-2.8 1.1-5.4 2-7.9 2.8a39 39 0 0 1-22.9 1.5 395.7 395.7 0 0 1-30.1-8.8c-16.3-5.2-30.3-9.7-42.9-9.8-5.8 0-11.1.8-16 2.4-19.9 6.4-33.2 25.4-51.5 51.5a755 755 0 0 1-25.4 34.7c-23.1 28.9-48 47.9-74.2 56.5m-192.9 61.4a47.1 47.1 0 0 1-15.5 1.8c-18.8-.3-53.4-24.1-78.6-41.6l-12.5-8.5c-6-4-11.5-7.2-16.5-9.5v-1c5.1 2.3 10.8 5.6 16.9 9.7l12.5 8.5c25.2 17.4 59.6 41.1 78.2 41.4 6.3.1 11.1-.4 15.3-1.8 3.7-1.2 6.9-3 10.3-5.6l1.9-.3c-4 3.3-7.7 5.5-12 6.9m13.5-8.1-1.9.4 6.5-5.9h1.3l-5.9 5.5m6.9-6.5h-1.3l7-7.1 1.2.1-.3.3-6.6 6.7m7.7-7.9-1.2-.1 7.2-7.4.5-.5 1.1.3-1 1a433 433 0 0 1-6.6 6.7m8.5-8.5-1.1-.2c3-3 6-5.8 8.9-8.4l1 .4a162 162 0 0 0-8.8 8.2m9.6-9-1-.3c3.5-3.1 6.9-5.9 10.2-8.4l1 .4c-3.3 2.5-6.7 5.2-10.2 8.3m11.1-8.9-1-.4c4.1-3 8.1-5.6 12-7.8l1.1.5c-4 2.1-8 4.7-12.1 7.7M823.4 44l-49.6 16.1.2-.1 9.5-3.1 43-13.9A90603 90603 0 0 1 976.6-5.6l1.3-.4-154.5 50M-51.3 322.9c-5.9 1.5-11.6 3.1-16.9 4.9l-5.6 1.8-5.6 1.8-5.6 1.8-5.6 1.8-5.6 1.8-5.6 1.8-122.8 39.8c-.2.1-.3.3-.2.6-.1-.3 0-.5.2-.6L-57 324.2c20.7-7.1 34.8-23.1 43.1-49 4.5-14.1 9.7-20.7 16.3-22.9 8.3-2.7 18.7 1.8 32.5 7.7a480 480 0 0 0 13.1 5.5c9.5 3.7 20.4 6 29.8 3 9-2.9 16.7-10.7 20.7-26.6l1.1-4.5c2.2-9.3 4.8-20.3 11.2-26.9l-.9 2.4c-5.2 6.6-7.5 16.4-9.5 24.8l-1.1 4.5c-2.9 11.5-8.9 23.3-21.2 27.3l-4 1c-4 .2-8.4-.2-13.2-1.1-5.8-1.1-11.2-2.7-15.9-4.1l-.5-.1a329 329 0 0 1-9.9-4.2c-13.6-5.8-23.9-10.2-31.9-7.6-6.4 2.1-11.5 8.6-15.9 22.2-7.6 23.8-20.1 39.3-38.1 47.3m193.5-113-5.3-2.1v-1l5.2 2.1.1 1m-6.1-2.3c-2.1-.7-4-1.2-5.9-1.5v-.9c1.9.3 3.8.8 5.9 1.5v.9m-6.7-1.7c-1.7-.3-3.4-.4-4.9-.3l.1-.9 4.9.3-.1.9m-17.9 5.2.9-2.1 2.3-1.6-.3 1.3c-1.1.7-2 1.5-2.9 2.4m12.1-5.5c-1.5.1-2.9.3-4.3.7l.2-1c1.3-.4 2.7-.6 4.2-.7l-.1 1m-8.2 2.4.3-1.3 1.4-.7 1.3-.5h.1l-.2 1.1-.9.3-2 1.1" clip-path="url(#x1)"/><path fill="#fff" d="M469.3 209.8c-28.7 9.3-54.1 4.7-72.4 1.4-7.3-1.3-13.7-2.5-18.7-2.5-6.7 0-13.9 1.2-21.4 3.6a87.4 87.4 0 0 0-10.3 4l-1.5-.3c3.9-1.8 7.8-3.4 11.6-4.6a71.6 71.6 0 0 1 25.2-3.5c4.4.4 9.5 1.3 15.2 2.3 7.4 1.3 15.9 2.9 25.3 3.6 13.9 1.1 29.7.5 46.7-5 20.9-6.8 43.6-21 66.6-48.5a586.4 586.4 0 0 0 27.7-38.5c13.6-20.4 25.4-38 40.7-46.7a51 51 0 0 1 28.1-7.1c10 .4 20.8 3.6 32.3 7 8.5 2.5 17.3 5.1 26.5 6.8l1.3.2c3.4.6 6.3 1.2 10.5 1.6 5.5.6 10.4-.2 15.5-1.9 3.4-1.1 6.8-2.5 10.6-4.2l3.1-1.4c6.8-3 15.1-6.8 26-10.3l.7-.2h.1l1.7-.6c-12.2 4-20.7 8.2-27.5 11.7l-.7.3c-5.1 2.3-9.5 4.2-13.8 5.6a36.2 36.2 0 0 1-15.7 1.9c-4.2-.4-7.3-1-10.6-1.6l-1.3-.2c-9.3-1.8-18.1-4.4-26.6-6.9a132.5 132.5 0 0 0-32.1-6.9 48.8 48.8 0 0 0-27.7 7.1c-15.2 8.7-26.9 26.2-40.4 46.5a548.3 548.3 0 0 1-21.9 31.2l-5.8 7.4c-23.2 27.6-46 41.9-67 48.7m-188.7 52.5a20 20 0 0 1-3.5.9l-1.9.3c-3.5.6-7.5.7-12.1.4-16.6-.8-46-20.1-71.9-37a563.6 563.6 0 0 0-29.9-18.7 99.5 99.5 0 0 0-19.9-8.6l-.1-1a93.6 93.6 0 0 1 20.2 8.7 480 480 0 0 1 30 18.8c25.8 16.9 55.1 36.1 71.5 36.9 5.4.3 9.8.1 13.7-.7l1.9-.4 1.7-.5c3.6-1.2 6.9-3 10.5-5.5l2.1-.4c-4.2 3.2-8 5.4-12.3 6.8m14.3-8.2-2.2.5 7.1-5.8h1.5l-6.4 5.3m7.5-6.3-1.5.1 6.8-6 1-.9 1.3.1-1.7 1.5-5.9 5.2m8.6-7.6-1.3-.1 3-2.7 5.7-4.8 1.3.2-6.4 5.3-2.3 2.1m9.6-8.1-1.3-.2c3.4-2.7 6.9-5.2 10.4-7.5h.2l1.1.2a206 206 0 0 0-10.4 7.5m11.6-8.1-1.4-.3c4.2-2.7 8.5-5.1 12.7-7.1l1.5.3a150 150 0 0 0-12.8 7.1M782.4 58.9 773 62l9.4-3.1M977.2-4.7c-.1-.3-.3-.4-.5-.3.1-.1.4.1.5.3M-33.7 320.7l-4.1.8a67.2 67.2 0 0 0 29.2-26.2c1.8-2.7 5.3-7.9 7.6-11.9 6.6-11.5 12.7-17 19.1-19.1 7.6-2.5 15.6-.2 25.4 2.7l.5.1c4.7 1.4 10.1 3 15.9 4.1 4.8.9 9.2 1.3 13.2 1.1 3.2-.2 6.1-.7 8.8-1.5 11.6-3.8 18.8-14.2 21.9-31.6l.8-4.7c1.1-6.6 2.2-13.6 4.3-19.7l.9-2.4c1.5-3.6 3.4-6.9 5.9-9.5l-.8 2.3a28.8 28.8 0 0 0-3.4 5.6l-.9 2.1a110 110 0 0 0-5.1 21.8l-.8 4.7c-3.1 17.7-10.5 28.4-22.3 32.2-6.2 2-13.7 2.1-22.4.4-5.8-1.2-11.2-2.7-16-4.1-9.8-2.9-17.9-5.3-25.4-2.8-6.3 2-12.3 7.5-18.8 18.7-2.3 4-5.8 9.2-7.6 11.9a69.3 69.3 0 0 1-25.9 25m-51.9 15.7a790 790 0 0 0-16.8 5.2l5.6-1.8c1.6-.6 5.8-1.9 11.2-3.4m226-137-4.4-.9v-.9l4.3.9.1.9m-5.2-1c-2-.3-3.9-.4-5.7-.3l.1-.9a28 28 0 0 1 5.7.3l-.1.9m-18.9 5.2.8-2 1.9-1.4-.3 1.4-2.4 2m12.4-5.5c-1.6.1-3 .4-4.4.8l.1-1c1.4-.4 2.8-.6 4.3-.7v.9m-8.9 2.8.3-1.3.3-.2 3-1.3h.2l-.1 1.1a20.3 20.3 0 0 0-3.7 1.7" clip-path="url(#x1)"/><path fill="#fff" d="M478.6 212.9c-26.9 8.7-51 4.7-69.8 1.6-6.7-1.1-12.6-2.1-17.6-2.3a81.7 81.7 0 0 0-28.5 4.3l-5.5 1.9-1.8-.3a97.8 97.8 0 0 1 35.7-6.9c5.1.2 10.9 1.2 17.7 2.3 18.7 3.1 42.7 7.1 69.5-1.6 20.9-6.8 43.4-21.3 66.3-49.9l5.5-7.3c6.7-9.3 12.6-18.4 18.3-27.3 13.9-21.7 25.9-40.5 43.2-48.4a52.3 52.3 0 0 1 27.6-5.4c8.7.6 17.7 3.1 27.3 5.6a203 203 0 0 0 30.7 6.5 43.8 43.8 0 0 0 19.6-1.7c4.8-1.6 9.2-3.9 14.4-6.5l1.6-.8c6.8-3.5 15.3-7.7 27.5-11.7l.6-.2h.1l1.8-.6a125 125 0 0 0-29.5 13.3l-1.7.9c-5.2 2.7-9.7 5-14.5 6.6a49.4 49.4 0 0 1-19.9 1.7c-11-1.2-21.1-3.9-30.8-6.6-9.5-2.6-18.5-5-27.2-5.6a51 51 0 0 0-20.1 2.5c-2.4.8-4.8 1.7-7.3 2.8-17.1 7.8-29 26.5-42.9 48.2-5.7 8.9-11.5 18-18.3 27.3l-5.5 7.4c-22.8 28.8-45.5 43.4-66.5 50.2m-181.9 41.7-3.7 1-2.1.4c-2 .3-4.1.5-6.4.5h-1.3l-6.8-.3c-15.8-1.3-43-18.9-69.3-35.9-16.6-10.7-32.2-20.8-43.3-25.6a73.2 73.2 0 0 0-22.9-6.6v-.9c6.5.5 14.2 2.7 23.2 6.6a365.5 365.5 0 0 1 43.4 25.6c25 16.1 53.4 34.4 69 35.7l7.7.3h1.3c2.6-.1 4.9-.4 7.2-.8l2.2-.5 1.5-.5a53 53 0 0 0 11-5.4l2.5-.5a54.3 54.3 0 0 1-13.2 6.9m15.6-8.4-2.7.7 7.7-5.5 1.7-.1-6.7 4.9m8.1-6-1.7.1 6.1-4.6 1.3-1 1.3-1 1.5.1-2.2 1.7-1.3 1-5 3.7m9.7-7.2-1.5-.1c3.4-2.5 7-4.8 10.6-6.9l1.5.2c-3.6 2.1-7.2 4.4-10.6 6.8m11.9-7.5-1.6-.2c4.4-2.5 8.9-4.7 13.4-6.6l1.7.3c-4.5 1.9-9 4.1-13.5 6.5M825.4 45l-43 13.9-9.5 3.1h.1l55.8-18.1L975.6-3.7 825.4 45M-20.3 318.4l-3.7.6a85.4 85.4 0 0 0 26.8-18.2c2.4-2.3 6.9-7.2 10.1-10.8a46.9 46.9 0 0 1 20.8-15.1 64.2 64.2 0 0 1 23.4-1.7c4.7.2 9.6.4 15.2.3 5-.1 9.4-.8 13.4-2.1 14.1-4.6 21.9-16.5 24.4-36.6l.6-5.2c.7-6.4 1.5-13 2.8-18.9l.3-1.3 1.1-4 .8-2.3a29 29 0 0 1 5.3-9.1l-.9 2.6a32 32 0 0 0-2.9 5.1l-.8 2c-.6 1.6-1.2 3.4-1.6 5.2l-.3 1.3c-1.5 6.2-2.3 13-3 19.8l-.6 5.2c-2.5 20.5-10.5 32.7-24.8 37.3a51 51 0 0 1-13.6 2.2c-5.6.2-10.7-.1-15.2-.3-8.6-.4-15.9-.7-23.1 1.6a45.6 45.6 0 0 0-20.5 14.9c-3.1 3.6-7.7 8.5-10.1 10.8a94 94 0 0 1-23.9 16.7m-59.5 16.3-5.8 1.7-11.2 3.4 5.6-1.8c2.2-.8 6.3-2 11.4-3.3m201.5-140.2.9-2.2c.7-.7 1.5-1.3 2.4-1.8l-.3 1.4c-1.1.7-2.1 1.6-3 2.6M140 188h-3.6v-.9h3.6v.9m-4.5 0c-1.9.1-3.6.5-5.3 1l.1-1c1.6-.5 3.4-.8 5.2-.9v.9m-9.8 3.1.3-1.3c1.1-.6 2.3-1.2 3.5-1.6l-.1 1.1c-1.3.5-2.6 1.1-3.7 1.8" clip-path="url(#x1)"/><path fill="#fff" d="M487.7 215.8c-25.9 8.4-49.5 4.8-67.9 1.9a97.3 97.3 0 0 0-51.7 2.3l-2.3-.3.3-.1a97.7 97.7 0 0 1 38-4.9c4.7.4 10.1 1.2 15.7 2.1 18.3 2.8 41.8 6.4 67.6-1.9 21-6.8 43.6-21.6 66.2-51.2 1.8-2.3 3.5-4.8 5.2-7.3 5.6-8.1 10.5-16.3 15.3-24.2 13.9-22.8 25.8-42.5 45-49.4l2.2-.7c8.8-2.8 16.8-3.7 25.1-2.8 7.2.8 14.3 2.6 21.9 4.4 10.8 2.7 22 5.5 33.9 5.4 3.9 0 8.1-.6 11.3-1.5l1.8-.6c6.6-2.1 10.8-4.8 15.5-7.8l2.6-1.6a123 123 0 0 1 29.5-13.3l.7-.2 133.5-43.2-92.6 30L773.4 61l-.3.1-2.1.7-.4.1-2 .7-.5.2-1.9.6h-.1c-9.4 3-16 6.1-21.3 9.2-5.8 2.8-9.8 5.4-13.4 7.6-4.7 3-8.9 5.7-15.6 7.8l-1.9.6c-3.2.9-7.5 1.5-11.5 1.5a135 135 0 0 1-34.1-5.4c-7.5-1.9-14.7-3.6-21.8-4.4-8.2-.9-16.1 0-24.9 2.8l-2.1.7c-19 6.7-30.9 26.3-44.6 49-4.8 7.9-9.8 16.1-15.4 24.3l-5.2 7.4c-22.7 29.6-45.4 44.4-66.6 51.3m-173.8 30.9-4 1.1-2.5.5c-2 .3-4 .5-6.2.6h-1.5c-2.3 0-4.7-.1-7.4-.4l-1.2-.1-1.4-.2c-15.3-1.8-42.2-19.1-68.2-35.8-21.5-13.8-41.7-26.9-55.2-31.3a57.2 57.2 0 0 0-25.6-3.5v-1a59 59 0 0 1 25.7 3.5c13.6 4.4 33.9 17.5 55.4 31.4 25.9 16.7 52.7 34 67.9 35.7l2.2.2 1.2.1 7.7.3 1.5-.1a41.6 41.6 0 0 0 9.9-1.7l1.4-.4c3.6-1.2 7.3-2.9 11.4-5.1l3-.6a71.8 71.8 0 0 1-14.1 6.8m17.2-8.4-3.3.8 8.5-5.1 1.9-.1-7.1 4.4m8.9-5.4-2 .1 1.6-1a153 153 0 0 1 8.8-5l1.9.1a114 114 0 0 0-10.3 5.8m11.9-6.5-2-.1c4.6-2.3 9.2-4.2 13.9-5.8l2.1.3c-4.7 1.5-9.4 3.4-14 5.6m-363.8 90.4-4.9 1.1-2.9.4 3.9-1.2c12.3-4 21-8.2 25.9-10.9l.7-.4c7.2-3.9 15.3-8.4 23.5-11.1l.7-.2c6-1.9 11.7-2.8 17.7-3.8 6.8-1.1 13.8-2.2 22.1-4.9 3.4-1.1 6.9-2.4 10.8-4.1 25.9-11.4 27.9-34.2 29.2-47.8l.3-3.2.6-6.3c.5-5.3 1-10.7 1.8-15.9l.2-1.1a53 53 0 0 1 1.2-6l.3-1.4 1.1-3.8.9-2.6c1.5-3.9 3.4-7.3 5.9-10.1l-.8 2.4a30.3 30.3 0 0 0-3.5 6.1l-.9 2.2-1.6 5.1-.3 1.3-1.3 6.4-.2 1c-.8 5.3-1.4 10.8-1.9 16.3l-.6 6.3-.3 3.2c-1.3 13.8-3.3 36.9-29.6 48.5-3.8 1.7-7.4 3-10.8 4.1-8.5 2.8-15.8 3.9-22.3 4.9a109.2 109.2 0 0 0-18.2 3.9c-8.1 2.7-16.2 7.2-23.4 11.1l-.7.4c-4.6 2.8-12.1 6.5-22.6 10.1m-29.4 8a1745 1745 0 0 0-38.6 9.9l-11.4 3.2 5.6-1.8c8-2.6 27.9-7.5 42.8-11l1.6-.3m168.9-140.4.8-2.1 1.6-1.3.6-.4-.3 1.3c-.9.7-1.8 1.5-2.7 2.5m3.8-3.3.3-1.3c1.4-.9 2.9-1.6 4.5-2.1l-.1 1c-1.7.7-3.2 1.5-4.7 2.4m8.6-3.3-3 .7.1-1 2.9-.7v1" clip-path="url(#x1)"/><path fill="#fff" d="M497 219.1c-24.9 8.1-48.1 4.6-67.3 1.8-4.4-.7-8.6-1.3-12.5-1.7-8-.9-21.3-1.4-36.9 1.9l-3.4-.2a121 121 0 0 1 40.4-2.7c4 .4 8.1 1.1 12.5 1.7 19.2 2.8 42.2 6.3 67-1.8 21.1-6.8 43.5-22 66-52.9a457.2 457.2 0 0 0 17.8-29c13.4-23.3 25-43.5 45.5-50.1l.5-.2a60.4 60.4 0 0 1 27.2-1.2c5.6.8 11.3 2.2 16.8 3.4 12.1 2.8 24.5 5.7 37.9 4.1a41.4 41.4 0 0 0 12-3.6c4.9-2.7 8.6-5.4 12.5-8.3 3.6-2.6 7.2-5.3 11.8-8 5.3-3.1 11.9-6.2 21.3-9.2h.1l1.9-.6a94.7 94.7 0 0 0-20.8 9.5c-5.6 3.1-9.7 6.1-13.8 9.1-3.8 2.8-7.6 5.6-12.6 8.4a40.5 40.5 0 0 1-12.2 3.6c-13.5 1.7-26-1.3-38.2-4.1-5.5-1.3-11.2-2.6-16.8-3.4a59 59 0 0 0-26.9 1.2l-.5.1c-20.3 6.6-31.8 26.6-45.1 49.8-4.1 7.1-8.3 14.4-12.9 21.7l-4.9 7.4c-22.6 31.2-45.2 46.4-66.4 53.3m-163.2 19.4c-2 .6-3.9 1.2-5.8 1.6l-3 .6c-2 .3-4 .5-6.1.6l-1.7.1c-2.3 0-4.7 0-7.3-.3l-1.3-.1-5.5-.7-2.3-.4-1.1-.3c-15.5-4-40.3-20-64.3-35.6-25-16.2-50.8-33-66.5-36.5a46.9 46.9 0 0 0-25-.2l-2.6 1 .1-1.1 2.2-.8a48.4 48.4 0 0 1 25.4.2c15.9 3.5 41.8 20.3 66.8 36.6 24.3 15.8 49.4 32.1 64.7 35.7l1.1.2 1.6.3 6.4.8 1.3.1c2.7.2 5.2.2 7.7.1l1.7-.1a63 63 0 0 0 10.7-1.9l2.5-.8c3.3-1.1 6.8-2.5 10.7-4.2l3.7-.6c-5.2 2.4-9.8 4.3-14.1 5.7m18-7.6-4.1.9a237 237 0 0 0 5.2-2.5l4.4-2 2.7-.1c-2.2.9-4.5 1.9-6.7 3l-1.5.7m25.1-9.1c-2.8.7-5.8 1.5-8.7 2.5l-5.4 1.9-3 .2a165.6 165.6 0 0 1 14.2-4.8l2.9.2M71.1 301c-14.9 4.8-29.9 6.9-38.9 8.2l-6 .9a702.7 702.7 0 0 0-35.1 7l-7.8.8 4.9-1.1a651.2 651.2 0 0 1 43.9-8.5c9-1.3 24-3.4 38.8-8.2A94 94 0 0 0 97 287.5c15-10.9 23.3-31.3 24.7-60.8l.2-4.7c.2-4.8.4-9.7.8-14.4l.1-1c.2-2.5.4-5.1.8-7.5l.1-1.1 1.1-6.3.3-1.4 1.1-4.3.8-2.4c1.4-3.7 3.2-7.1 5.5-9.9l-.7 2.5a30.4 30.4 0 0 0-3.2 5.9l-.8 2.1c-.6 1.7-1.2 3.6-1.6 5.5l-.3 1.3a72 72 0 0 0-1.2 6.7l-.1 1a171 171 0 0 0-.8 7.8l-.1.9c-.4 4.8-.6 9.7-.8 14.6l-.2 4.7c-1.3 29.7-9.8 50.4-25 61.5-8 5.8-17.3 9.8-26.6 12.8M829 43.8l-55.8 18.1h.1l57.2-18.5L977-4l-1.3.4C964.5-.1 886.8 25.1 829 43.8M-42.8 325.1c-14.9 3.6-34.8 8.4-42.8 11l5.6-1.8c8.4-2.7 23.6-6.3 37.2-9.2m175.9-150.6.8-2.2 1.2-1.1c.7-.7 1.5-1.3 2.4-1.8l-.2 1.3-1.6 1.3c-1 .7-1.8 1.6-2.6 2.5m5.1-4.5.2-1.3 2.1-1.1-.1 1.1-2.2 1.3" clip-path="url(#x1)"/><path fill="#fff" d="M506.2 222.4a70 70 0 0 1-4.9 1.4c-22.9 6.1-44.4 2.8-63.4 0a208.9 208.9 0 0 0-44.7-2.4H390c15.5-2 29.6-1.1 40.1.4l7.8 1.2c18.9 2.9 40.3 6.1 63.1 0l4.8-1.4c24.4-7.9 46-25.8 65.8-54.6l4.6-7.3c4.1-6.8 7.7-13.8 11.3-20.6 11.2-21.3 21.8-41.5 41.4-47.8 1.4-.5 2.9-.9 4.4-1.2a72.6 72.6 0 0 1 27.4.4l10.9 2.3c14 3.1 28.5 6.4 43.5 1.9l.5-.2c2.6-.8 5.6-2.4 8.3-4.3a125 125 0 0 0 7.4-6.1c4.3-3.7 9.1-7.9 15.7-12a94.7 94.7 0 0 1 20.8-9.5l.5-.2 2-.7a80 80 0 0 0-17.3 8c-9.5 5-15.8 10.4-21.2 15.1-2.6 2.2-5 4.3-7.5 6.1-2.8 2-5.9 3.6-8.5 4.4l-.4.1c-15.1 4.5-29.7 1.2-43.8-1.9l-10.9-2.3a71 71 0 0 0-31.5.7c-19.4 6.3-29.9 26.3-41 47.5-3.6 6.8-7.2 13.8-11.3 20.6l-4.6 7.4c-19.8 29-41.5 47-66.1 55m-116.1-.2-9.3 1.5-1 .2-9.6 1.5c4.8-1.4 9.5-2.5 14.1-3.3l5.8.1m-19.6 4.2-2.8.9-1 .3-2.7.9c-5.9 1.9-11 3.3-16 4.3l-3.7.6c-2 .3-4 .5-6.1.6l-1.9.1c-2.4.1-4.9 0-7.5-.1l-1.5-.1-7.8-.9-1.3-.2-1.8-.3c-1.9-.3-3.9-.9-6.1-1.6l-1-.4c-15.2-5.5-37.2-19.9-60.2-35.1-29.3-19.3-59.6-39.2-77.6-41.4-8.3-1-15.1-.6-20.8 1.2-3.2 1-6 2.5-8.4 4.5l.3-1.3c2.3-1.7 4.9-3.1 7.9-4a48 48 0 0 1 21-1.2c18.2 2.2 48.6 22.2 78 41.6 23.3 15.3 45.5 30 60.7 35.2l1 .3a43.2 43.2 0 0 0 8.1 1.8l1.3.2 7.9.9 1.5.1h7.9l2-.1a68 68 0 0 0 7.7-1.1l4.1-.9c3.7-.9 7.6-2 11.9-3.4l2-.6c1.7-.5 3.3-.6 4.9-.8M85.6 309.1c-8.2 2.7-16.9 3.5-25.8 4.4l-8.4.9-8.7.6c-7.6.4-18.5 1.1-30 2l-8.9-.2c14.6-1.4 29.3-2.2 38.8-2.8 4.4-.3 7.6-.4 8.6-.6l8.4-.9a124 124 0 0 0 25.9-4.4 51 51 0 0 0 29.9-25.8c7.1-12 12.1-36.3 12.6-61.9l.1-5.8.1-6.8v-.9l.3-8.9.1-1 .6-7.8.1-1.1 1-6.5.3-1.3 1-4.1.7-2.5c1.6-4.9 3.9-9.3 7.1-12.7l-.7 2.1a31 31 0 0 0-5 9.1l-.8 2.2a82 82 0 0 0-1.4 5.3l-.3 1.3a125 125 0 0 0-1.1 6.9l-.1 1c-.3 2.6-.5 5.3-.6 8.1l-.1.9c-.2 2.9-.3 6-.3 9v.9l-.1 6.7-.1 5.8c-.6 26.2-5.5 50.1-12.8 62.4a51.5 51.5 0 0 1-30.4 26.4m-90.9 9.6a361.9 361.9 0 0 0-37.5 6.3 421.2 421.2 0 0 0-37.2 9.2l5.6-1.8A378.8 378.8 0 0 1-10.6 319c1.8 0 3.6-.1 5.3-.3M830.5 43.3l-57.2 18.5h.1l58.6-19L977-4.1 830.5 43.3M140.3 161.6l.7-1.9.7-.6-.3 1.4-1.1 1.1" clip-path="url(#x1)"/><path fill="#fff" d="m515.5 225.9-5.1 1.5c-23.4 6.1-46.4 2.2-66.6-1.2l-.6-.1-6.7-1.1c-8.4-1.4-17.3-2.6-26.5-3.3a232 232 0 0 1 33.2 3.4l.6.1c20.2 3.4 43.1 7.2 66.3 1.2 1.7-.4 3.4-.9 5-1.5 24.6-8 46.1-26.5 65.6-56.4 1.5-2.3 2.9-4.8 4.3-7.3 3.2-5.8 6.2-11.9 9.1-17.7 10.5-21.3 20.5-41.5 40-47.8a40 40 0 0 1 7.8-1.7c7.6-.9 15.8-.2 26 2.1l6.5 1.5c14.3 3.4 27.8 6.7 40.5 2.5a32 32 0 0 0 4.3-1.7c4.1-1.9 7.1-4.7 9.8-7.1 2-1.8 4-3.9 6-6.1a77.6 77.6 0 0 1 35.2-23.5l.4-.1 2.1-.7a60.8 60.8 0 0 0-14.9 7.1c-10.5 5.6-16.8 12.3-22.2 17.9-2.1 2.2-4.1 4.3-6.1 6.1-2.7 2.4-5.8 5.2-10 7.2L715 101c-12.9 4.2-26.5.9-40.9-2.5l-6.5-1.5a75 75 0 0 0-25.8-2.1c-2.7.3-5.3.9-7.6 1.7-19.3 6.3-29.2 26.3-39.7 47.5a426.2 426.2 0 0 1-13.4 25.2c-19.3 30-40.9 48.6-65.6 56.6M410 222.7a149 149 0 0 0-30 2.2l-9.5 1.5-4.8.5-5.7.4-2.7.1-7.2-.1-1.9-.1c-2.5-.2-5-.4-7.7-.8l-1.5-.2c-2.6-.4-5.2-.8-8-1.4l-1.1-.2h-.2c-2.5-.5-5.2-1.4-8.3-2.6l-1-.4c-15-6.3-35.9-20.3-57.7-34.8-33.6-22.5-68.4-45.8-88.6-46.2a47 47 0 0 0-15.4 1.9c-7 2.3-11.8 6.4-15.2 12a30 30 0 0 1 1-3.2c3.3-4.4 7.7-7.7 13.8-9.7 4.4-1.4 9.6-2.1 15.8-2 20.5.5 55.3 23.8 89 46.4 22.1 14.8 43.1 28.9 58.1 35l1 .4a51 51 0 0 0 7.7 2.4l.8.2 1.4.3 8.2 1.4 1.6.2c2.7.3 5.3.6 7.9.7l2 .1h7.8l3-.2 7.5-.7 9.6-1.5 1-.2a113 113 0 0 1 29.3-1.4M93.5 319.2c-10 3.2-21 3.3-32.2 3.4-2.8 0-5.7-.6-8.7-1.2l-4.3-.9c-3.5-.6-7.8-1.2-13-1.6a211 211 0 0 0-20.8-1.7 198.5 198.5 0 0 1 38.1 3.4c3 .6 5.8 1.2 8.6 1.2 11.2-.1 22.1-.2 32-3.4 12.7-4.1 23.7-13.4 31.3-34.5 6.6-18.9 9.8-39.6 10.5-67.2l.1-7v-4.5l.1-6.6v-.9c.1-3.2.1-6.3.3-9.4v-1c.1-2.8.3-5.6.6-8.3l.1-1c.2-2.4.6-4.8.9-7.1l.2-1.3 1.4-6.1.7-2.1c.9-2.8 2.1-5.4 3.5-7.8-.3 1.2-.7 2.5-.9 3.8l-1.1 2.5-.7 1.9a49 49 0 0 0-1.9 7.1l-.2 1.3-1.1 7.5-.1 1c-.3 2.8-.5 5.6-.6 8.5v.9l-.3 9.6v.9l-.1 6.6v4.8l-.1 6.8c-.7 27.7-3.9 48.6-10.6 67.5-7.7 21.3-18.8 30.7-31.7 34.9M14.4 318a285 285 0 0 0-25.1 1.1 380.8 380.8 0 0 0-63.8 13.4l5.6-1.8a272.8 272.8 0 0 1 66-12.9c6.1-.1 11.9 0 17.3.2M832 42.9l-58.6 19 .3-.1 59.8-19.4L976.9-4.1 832 42.9M976.6-5" clip-path="url(#x1)"/><path fill="#fff" d="m524.9 229.5-1.4.4c-23.4 7.1-47 3.6-67.4-.4a386.1 386.1 0 0 0-46.1-6.9c-5.4-.4-10.9-.6-16.4-.5H390l-5.8-.1-7.4-.4-3-.2-8-.9-2.1-.3c-2.7-.4-5.5-.8-8.3-1.4a169.3 169.3 0 0 1-10.4-2.1l-1.5-.3h-.2a50 50 0 0 1-8.9-3.1l-1.1-.5c-15-6.7-35.5-20.8-57-35.4-36.1-24.6-77.1-52.6-99.5-50.9-4.1.3-7.7 1-11.1 2.1-10.5 3.4-17.3 10.7-21.2 22.3l-1 3.2v.1l-.9 3.9-.3 1.3c-.4 2.4-.8 5-1 7.6l-.1 1.1-.5 8.4v11.4l.4 10.6.1 1 .7 11.6v1c1.8 28.1-2.1 61.2-5.4 75.8-5.9 25.9-16.8 37.5-30.1 41.8a66.9 66.9 0 0 1-32.7.1 71 71 0 0 1-10.6-3.3l-3.7-1.4a155.7 155.7 0 0 0-45-7.3c-5.4-.2-11.2-.3-17.3-.2-15.2.2-44.2 5.8-66 12.9l-5.6 1.8-5.6 1.8-5.6 1.8-5.6 1.8-5.6 1.8-5.6 1.8-122.8 39.8c-.2.1-.5-.1-.5-.3-.1-.3 0-.5.2-.6l150.8-48.8 5.6-1.8a311.5 311.5 0 0 1 31.4-8.3l4.1-.8 9.7-1.7 3.7-.6.6-.1 2.9-.4c2.8-.4 5.4-.6 7.8-.8a63 63 0 0 1 5.9-.3h6.9a258.4 258.4 0 0 1 31.4 2 124 124 0 0 1 24.4 5.6l3.8 1.4a70 70 0 0 0 43.3 2.8c18.2-5.9 25-22.6 29.2-40.8 3.3-14.6 7.2-47.7 5.4-75.8v-.1l-.1-1-.7-11.5v-1l-.4-10.5v-.9c-.1-3.2-.1-6.3 0-9.3v-1l.4-8.1.1-1.1c.2-2.4.5-4.8.9-7.1l.3-1.4.4-1.9.9-3.8c3.4-12.2 10.1-21.5 22.7-25.5 3.3-1.1 6.9-1.8 11-2.1 22.6-1.7 63.7 26.3 100 51 21.8 14.9 42.7 29.1 57.6 35.7l1.1.5a58 58 0 0 0 11 3.3l8.9 1.8 1.8.3c3 .5 5.8 1 8.7 1.3l2.3.3 8.7.8 3.4.2c3.2.2 6.5.2 9.8.2H400.2c3.3.1 6.6.2 9.8.5 9.2.7 18.1 1.9 26.5 3.3l19.8 3.6c20.3 3.9 43.8 7.5 67.1.4l1.3-.4c24.6-8 46-27.1 65.2-58.5a299.4 299.4 0 0 0 11.6-23.5c9.1-20.2 18.5-40.9 37.7-47.2 3.3-1.1 6.9-1.7 10.9-1.8 7.9-.3 17 1.9 25.1 3.9l2 .5 7.4 1.8c12 3 21.6 5.5 31.5 2.2A39.8 39.8 0 0 0 734.2 93c1.7-1.9 3.3-4 5-6.2a76.4 76.4 0 0 1 19.1-19c4.1-2.7 9-5.2 14.9-7.1l.3-.1 31.1-10.1 92.6-30L959.3.4 976.6-5c.2-.1.5.1.5.3.1.3 0 .5-.2.6L833.4 42.4l-59.7 19.3-.3.1H773.1l-.2.1c-18 6.1-26.3 16.9-33.1 25.6a87 87 0 0 1-12.1 13.1c-4 3-7.7 5-11.4 6.2-10.1 3.3-19.7.8-31.8-2.3l-7.4-1.8-2-.5c-8-1.9-17.1-4.1-24.9-3.8-3.9.1-7.4.8-10.6 1.8-19 6.1-28.3 26.7-37.3 46.7-2.4 5.4-5 11-7.7 16.3l-4 7.4c-19.4 31.7-40.9 50.9-65.7 58.9" clip-path="url(#x1)"/><path fill="#fff" d="M534.6 233.3c-22.7 7.3-45.8 4.1-65.5-.2l-19.5-4.5a609.2 609.2 0 0 0-42.9-9.1c-16.1-2.6-31-6.1-49.9-10.9-14.9-3.8-40.3-21.4-67.1-40.2-40.2-28-85.8-59.7-110.2-55.4-37.9 6.8-34.6 49.3-31.2 94.3 2.2 29.7 2.3 61.5.2 80.9-2.7 25-9.4 40.9-20.4 48.6-10 7-23.3 7.2-41.8.5-4.8-1.7-9.8-4.3-15-6.9l-.6-.3c-17.7-9-39.9-13.7-65.7-13.7-18.4 0-44.6 4.7-68.3 12.4l-162 52.4c-.2.1-.5-.1-.5-.3-.1-.3 0-.5.2-.6l162-52.4a240 240 0 0 1 68.5-12.4c26 .1 48.2 4.7 66.1 13.8l.6.3c5.3 2.7 10.2 5.2 14.9 6.9 18.2 6.6 31.3 6.4 41.1-.5 10.8-7.5 17.3-23.2 20-48 2.1-19.4 2-51-.3-80.7-3.4-45.4-6.7-88.4 31.8-95.3 24.7-4.4 70.4 27.4 110.7 55.5 26.8 18.7 52.2 36.3 66.9 40 18.9 4.8 33.8 8.3 49.9 10.9 15 2.4 29.2 5.8 43 9.1l19.5 4.5c20.3 4.4 44.2 7.8 67.5-.6 23.6-8.4 43.9-28 62.1-59.8l2.4-4.7 1.3-2.7a236 236 0 0 0 8.2-18.5c9.9-23.8 19.3-46.4 46.6-44.1 7.3.6 15 2.3 25.2 5.4l1.3.4c17.6 5.5 34.2 10.7 49.3-4.5a70.2 70.2 0 0 0 9.1-13c6.4-10.6 14.3-23.8 33.7-30.1l200.8-65 .3.9-200.8 65c-19.2 6.2-27 19.3-33.3 29.8l-3 4.9c-1.9 2.9-3.9 6-6.2 8.3-15.4 15.5-32.2 10.2-50 4.6l-1.3-.4a112.3 112.3 0 0 0-25-5.4c-26.8-2.2-36 20.1-45.8 43.7-2.6 6.2-5.3 12.7-8.3 18.6l-1.3 2.7-2.4 4.7c-18.3 32-38.7 51.7-62.5 60.2l-2.4.9z" clip-path="url(#x1)"/><path fill="#fff" d="M545.7 237.6c-34.6 11.2-74.2-2.7-119.4-18.5a880 880 0 0 0-56.1-18.3c-15-4.2-40.7-22.9-67.9-42.6-44.2-32.1-94.2-68.4-120.2-61-39.4 11.1-32.7 63.3-25.7 118.5 3.3 25.5 6.6 51.9 5.4 74.8-1.7 30.7-6.6 42.3-13.4 50.2C135 356.3 112 354.4 82 335c-36.5-23.5-83.5-26.2-139.7-8l-167.6 54.3c-.2.1-.5-.1-.5-.3-.1-.3 0-.5.2-.6L-58 326.2c56.4-18.3 103.7-15.6 140.3 8.1 29.7 19.1 52.3 21.1 65.5 5.7 6.7-7.8 11.5-19.3 13.2-49.7 1.2-22.8-2.1-49.1-5.4-74.6-7.1-55.6-13.7-108.1 26.2-119.5 26.3-7.5 76.5 29 120.8 61.2 27.2 19.7 52.8 38.4 67.6 42.5 19.7 5.5 38.2 12 56.2 18.3 38.5 13.5 71.7 25.2 101.7 22.2 32.9-3.3 58.4-24.5 80.1-66.7a194 194 0 0 0 8.6-21c8.6-23.4 18.3-50 45.6-45.4 7.1 1.2 14.5 3.6 21.6 5.9 20.8 6.8 40.4 13.2 54.9-6.8 2.4-3.3 4.4-7.8 6.4-12.4 5.4-12.5 12.2-28 32.9-34.7L976.6-5c.2-.1.5.1.5.3.1.3 0 .5-.2.6L778.6 60.1c-20.4 6.6-27.1 21.9-32.5 34.3-2.1 4.7-4 9.2-6.5 12.6-14.8 20.4-35.6 13.6-55.7 7-7.1-2.3-14.5-4.7-21.5-5.9-26.7-4.5-35.9 20.6-44.8 44.9-2.8 7.7-5.5 14.9-8.6 21.1-19.1 37.1-40.1 56-63.3 63.5z" clip-path="url(#x1)"/><path fill="#fff" d="M137.4 376.7c-19.6 6.3-37.4-7.2-62.1-25.9a596.4 596.4 0 0 0-31-22.4c-34.2-22.7-76-9.5-76.6-9.3l-192.8 62.4c-.3.1-.7-.1-.8-.5-.1-.4 0-.7.3-.9l192.8-62.4c.6-.2 43-13.6 77.6 9.4 11.7 7.8 22 15.6 31.1 22.5 24.4 18.5 42 31.9 61.1 25.7 29.8-9.6 37.1-55.7 24.4-154.2l-.8-6.6c-8.8-68.1-22.1-171 15.7-178 26.5-4.9 67.6 43.1 107.4 89.4a770 770 0 0 0 52.1 57.1c26.8 25.1 54.8 41.1 81 46.2 30.7 6 57.8-2.8 80.5-26.1a407 407 0 0 0 29.5-34.7c18.5-23.7 31.9-40.7 53.6-33.2 10.6 3.7 20.3 9.4 28.8 14.4 16.5 9.7 29.5 17.3 41.2 7 16.5-14.6 10.1-59.5 4.5-99.1-4.8-33.8-9.4-65.7.5-75.4C668.6-31 688.6-9.1 709.8 14c21 22.9 44.7 48.9 65.5 44.2 41.5-9.4 199.9-62.3 201.5-62.8.3-.1.7.1.8.5.1.4 0 .7-.3.9-1.6.5-160 53.5-201.6 62.9-21.4 4.7-45.5-21.6-66.7-44.7-21.6-23.7-40.3-44.1-53-31.6-9.4 9.3-4.9 40.9-.1 74.3 5.7 40 12.2 85.3-4.9 100.3-12.2 10.8-26.2 2.6-42.4-7a166 166 0 0 0-28.6-14.3c-20.9-7.2-33.5 8.7-52.4 32.9a423.2 423.2 0 0 1-29.5 34.8 85.2 85.2 0 0 1-81.4 26.4c-26.4-5.2-54.6-21.3-81.6-46.5a772.6 772.6 0 0 1-52.2-57.2c-39.5-46.1-80.4-93.8-106.3-89-36.8 6.7-23.6 108.9-14.9 176.5l.8 6.6c12.8 99.1 5.3 145.7-25.1 155.5z" clip-path="url(#x1)"/><path fill="#fff" d="m127.2 362.2-3.3.9c-4.4 1-8.7 1.2-12.9.6-14.6-2.2-27.9-10.4-44.7-20.9l-9-5.5-1.9-1.2c-6.1-3.7-12.3-7.5-19.4-11.2-22.6-11.6-49.7-9-63.9-6.4-5.2 1-9.2 2.3-9.3 2.3l-187.9 60.9c-.3.1-.7-.1-.9-.5-.1-.4 0-.8.4-.9l187.9-60.9c.1 0 4.1-1.3 9.4-2.3 14.3-2.6 41.8-5.2 64.7 6.5 7.1 3.7 13.4 7.5 19.5 11.2l1.9 1.2 9 5.6c16.7 10.4 29.9 18.6 44.2 20.7 4.1.6 8.2.4 12.5-.6 22.8-5.3 33-28.7 34.2-78.3a499 499 0 0 0-4.9-75.1c-7.6-67.3-17.9-159.4 17.2-167 26.4-5.7 66.9 39.8 106.1 83.9 17.5 19.7 34 38.2 49 52 27.6 25.5 98 78.8 155.2 23.9a389.3 389.3 0 0 0 30.6-34.2c18.9-23 32.5-39.7 54.2-34.4 10.9 2.7 20.5 7.6 29.9 12.3l8.4 4.2c13.1 6.2 23.2 8.7 33 1.7 7.3-5.2 11.4-14.6 13.8-31.4 3.2-22.4 1-53.2-.9-80.3l-.3-3.7c-1.5-21.5-2.3-41.5 5-49.4 4.7-5.1 10.6-6.1 18-3 11.1 4.7 24.3 19 38.2 34.2 20.8 22.6 44.4 48.3 65 45.2 3.1-.5 6.6-1.2 10.5-2.2 9.3-2.3 19.9-6.7 31.1-11.4 10.4-4.3 21.1-8.8 32.8-12.6L976.7-4.7c.3-.1.7.1.9.5.1.4 0 .8-.4.9-.7.4-73.2 23.4-127.2 40.9-11.7 3.8-22.4 8.3-32.8 12.6A250.7 250.7 0 0 1 786 61.7c-4 1-7.5 1.7-10.6 2.2-21.2 3.2-45.1-22.7-66.1-45.6-13.8-15.1-26.9-29.3-37.7-33.8-6.9-2.9-12.3-2-16.7 2.7-6.9 7.5-6.1 27.1-4.6 48.2l.3 3.7c1.9 27.3 4.1 58.1.9 80.7-2.5 17.3-6.8 26.9-14.3 32.3-10.2 7.3-20.7 4.8-34.2-1.7l-8.4-4.2c-9.2-4.7-18.8-9.6-29.6-12.2-21.1-5.1-34.5 11.3-53.1 34-8.7 10.6-18.5 22.6-30.7 34.3a85.5 85.5 0 0 1-33.3 20.5c-49.5 16-100.9-23.6-123.6-44.5a792.5 792.5 0 0 1-49.1-52.2c-38.9-43.8-79.2-89-104.9-83.4-34 7.4-23.3 102.5-16.2 165.4l1.5 13.1c2.7 24.7 3.8 45.6 3.4 62.2-1.1 48.1-10.7 72-31.8 78.8z" clip-path="url(#x1)"/><path fill="#fff" d="M117.8 347.8a41 41 0 0 1-19.8 1.4c-13.7-2.6-25.5-8.1-39.1-14.3l-11.6-5.3-4.1-1.8c-4.9-2.2-9.9-4.5-15.5-6.4-15.6-5.3-36-5.8-60.8-1.2a68 68 0 0 0-9 2.3l-183.1 59.3c-.4.1-.8-.1-1-.6-.1-.5 0-.9.4-1l183.1-59.3s4.5-1.5 9.2-2.3c25-4.6 45.6-4.1 61.4 1.3 5.7 1.9 10.7 4.2 15.6 6.5l4.1 1.8 11.6 5.3c13.6 6.2 25.3 11.6 38.8 14.2 3.8.7 7.7.8 12.1.2 16.9-2.3 33.2-11.9 38.3-66.8 1.4-14.9 1-35-1.2-59.6l-1.8-18.8c-6-62.7-14.3-148.6 18.4-156.8 26.3-6.6 66.4 36.6 105.1 78.5 16.2 17.5 31.5 34.1 45.7 46.9 77.6 70.4 126.6 47.6 148.9 27.7 12.6-11.3 22.9-23.3 32-33.9 18.3-21.4 32.8-38.4 54.6-35.2 11.4 1.6 21.7 6 31.8 10.2l7 2.9c13.8 5.5 23.7 7.6 33.7 2 8.7-4.9 12.9-13.7 17-26.5 5.7-17.9 8.2-44.4 7.4-78.7v-1.2c-.5-21.7-1-40.5 5.9-48.7 4.6-5.5 10.4-6.8 17.8-4.2 11.3 4 25.2 19 39.8 34.9C731.2 43 754.6 68.4 775 66.7c3.2-.3 6.8-.8 10.7-1.7 9.7-2.2 19.6-7.5 30-13.1 10.1-5.4 20.5-11.1 32.4-14.9 50.3-16.3 128-41.1 128.7-41.3.4-.1.8.1 1 .6.1.5-.1.9-.4 1-.8.2-78.5 25-128.7 41.3a190.1 190.1 0 0 0-32.2 14.8c-10.5 5.7-20.4 11-30.3 13.3-3.9.9-7.6 1.5-10.9 1.8-21.1 1.7-44.8-24-65.7-46.7-14.7-16.1-28.4-31-39.3-34.8-6.9-2.4-12.3-1.2-16.4 3.9-6.5 7.7-6 26.2-5.5 47.6v1.2c.8 34.5-1.7 61.2-7.5 79.3-4.1 12.7-8.6 22.2-17.6 27.3-10.4 5.8-20.6 3.7-34.8-2l-7-2.9c-9.9-4.2-20.2-8.5-31.4-10.1-21.1-3-35.4 13.7-53.4 34.8-9.1 10.6-19.4 22.7-32.1 34.1a77.4 77.4 0 0 1-74.6 17.4c-23.9-6.1-50.2-21.7-76.1-45.2a806.1 806.1 0 0 1-45.8-47C229.7 83.9 190 41 164.4 47.4l-1.2.3c-30.1 9.8-22.1 93.5-16.2 154.8l1.8 18.9c2.2 24.7 2.6 44.9 1.2 59.9-3.8 40.3-13.3 60.4-32.2 66.5z" clip-path="url(#x1)"/><path fill="#fff" d="M110 333.8c-4 1.3-8.4 1.9-12.9 2a46 46 0 0 1-12.1-1c-8.6-2-16.3-4.7-23.7-7.4a196.6 196.6 0 0 0-42.7-11c-18.1-2.7-39.6 1.8-51.2 4.2l-5.6 1.1c-3.9.7-8.7 2.3-8.7 2.3l-178.2 57.7a.9.9 0 0 1-1-.6c-.2-.5 0-1 .5-1.1l178.2-57.7s4.9-1.6 8.9-2.3l5.5-1.1c11.6-2.4 33.3-7 51.7-4.2 6.4 1 11.3 2 18.1 3.5 8.9 1.9 17 4.8 24.9 7.6 7.4 2.6 15.1 5.3 23.6 7.3 3.5.8 7.2 1.1 11.7 1 20.4-.7 35.3-10.3 42.3-55.3 2.2-14.4 2.6-34.2 1-57.2l-1.9-24.9c-4.8-60.9-10.8-136.6 18.8-146.2l.6-.2c26.4-7.6 66 33.4 104.4 73.2a773.6 773.6 0 0 0 42 41.6c25.5 22.8 50 37.6 72.8 44.2 26.7 7.7 50.2 3.4 69.9-12.7 13.3-10.9 24.1-23.1 33.7-33.9 18.3-20.6 32.8-36.9 54.5-35.9 12.2.5 23.8 4.4 34.9 8.1l4.3 1.4c11.9 3.9 23.4 7 34.4 2.3 9.9-4.2 15-12.2 20.2-21.6 9.6-17.1 15.2-43.1 15.9-73.4l.2-7.9c.3-18.6.6-34.6 6.6-42.5 4.4-5.8 10.2-7.6 17.7-5.5 11.5 3.2 26 19 41.4 35.6 20.6 22.2 43.9 47.4 64.1 47.1 3.4-.1 7-.5 10.8-1.3 10.4-2.2 19.9-8.6 29.9-15.3A126 126 0 0 1 846.4 37C892.9 21.9 975.9-4.5 976.7-4.8c.4-.1.9.2 1 .7.2.5-.1 1-.5 1.1-.8.3-83.8 26.7-130.3 41.9-11.4 3.7-21.2 10.3-30.6 16.6A90 90 0 0 1 786 71c-3.9.8-7.6 1.3-11.1 1.3-21 .3-44.5-25.2-65.4-47.7C694.4 8.2 680-7.3 669-10.5c-6.9-1.9-12.2-.3-16.2 5-5.7 7.4-5.9 23.2-6.2 41.4l-.2 7.9c-.7 30.6-6.4 57-16.1 74.3-5.2 9.2-10.6 17.8-20.9 22.2-11.4 4.8-23.3 1.7-35.4-2.3l-4.3-1.4a126.5 126.5 0 0 0-34.5-8c-21-.9-35.3 15.1-53.4 35.5a301.3 301.3 0 0 1-33.9 34c-20 16.4-43.9 20.8-71.1 13-23-6.6-47.7-21.6-73.4-44.5-13.2-11.8-27.2-26.3-42.1-41.7-38-39.4-77.3-80.1-102.8-72.7l-.5.2c-28.5 9.2-22.5 84.1-17.8 144.4l1.9 24.9c1.6 23.2 1.2 43.1-1.1 57.7-5.9 35.8-16.6 49.7-31 54.4z" clip-path="url(#x1)"/><path fill="#fff" d="M102.3 320.5c-6 1.9-12.4 2.1-18.8 1.7a183.3 183.3 0 0 1-23.8-4.2c-16.4-3.8-29.3-6.8-50.4-5.3a207.7 207.7 0 0 0-43.8 8.4 91.6 91.6 0 0 1-8.9 2.3c-3.2.6-8.4 2.3-8.5 2.3l-173.3 56.1c-.4.1-1-.2-1.1-.7-.2-.5.1-1.1.5-1.2l173.3-56.1a75 75 0 0 1 8.7-2.3 91 91 0 0 0 8.8-2.3c9.7-2.8 24.4-7 44.1-8.4 21.3-1.6 34.3 1.4 50.8 5.3l6.3 1.5a177 177 0 0 0 17.3 2.7c21.7 1.5 37.8-5.3 46.4-43.8 3.1-13.9 4.2-33.3 3.3-54.8-.4-9-1-18.8-1.7-29.1-3.6-57-8-128 20-137.7l.5-.2c26.4-8.5 65.6 30.3 103.5 68a869 869 0 0 0 38 36.3c69.7 61.1 112.6 52.9 136.4 35.2a254.4 254.4 0 0 0 35.9-34c17.5-18.9 32.6-35.2 54.1-36.4 13.7-.8 27 2.7 39.8 6.1a78.4 78.4 0 0 0 35.2 2.6c9.9-1.7 15.6-8 22.1-15.2l1.3-1.4c13.9-15.2 22.3-38.8 24.4-68.1l.7-12.8c.8-16.3 1.6-30.4 6.9-38 4.3-6.2 10-8.4 17.6-6.8 11.6 2.5 26.8 18.9 42.9 36.3 20.5 22.1 43.7 47.2 63.8 48.1a42 42 0 0 0 11-.9C796.8 71.5 806 64 815.7 56c8.8-7.3 18-14.8 29.2-18.5 42.7-14 131-42.2 131.9-42.4a1 1 0 0 1 1.1.7c.2.5-.1 1.1-.5 1.2-.9.3-89.1 28.4-131.8 42.4-11 3.6-20 11-28.8 18.2-9.8 8.1-19.1 15.7-30.7 18-3.9.8-7.7 1.1-11.3.9-20.8-1-44.3-26.4-65.1-48.7-15.9-17.1-30.9-33.3-41.9-35.7-6.9-1.5-12.1.5-16 6.1-5 7.2-5.7 21-6.5 37l-.7 12.8c-2.1 29.7-10.7 53.7-24.8 69.2l-1.3 1.4c-6.5 7.1-12.6 13.9-23 15.7a81.5 81.5 0 0 1-35.9-2.6c-12.7-3.3-25.8-6.8-39.3-6-20.8 1.1-35.8 17.3-53 35.9-10.3 11.1-21.9 23.7-36.1 34.2-24.2 18-67.9 26.4-138.4-35.4a822.9 822.9 0 0 1-38.1-36.4C216.8 86.9 178 48.4 152.6 56.6l-.4.1c-26.8 9.3-22.5 79.5-19 135.8.6 10.3 1.3 20.1 1.7 29.1 1 21.7-.2 41.3-3.3 55.4-6.3 28.3-17 39.6-29.3 43.5z" clip-path="url(#x1)"/><path fill="#fff" d="M96.4 308.6a54.4 54.4 0 0 1-26.3 0c-4.4-.8-8-1.6-11.2-2.6-20.5-6.4-29.4-3.8-41.7-.3l-5.8 1.6c-12.6 3.4-28.7 8.4-41.6 12.3-8.5 2.6-15.2 4.7-18.2 5.5l-8.3 2.3-168.4 54.5c-.5.2-1-.2-1.2-.8-.2-.6.1-1.2.5-1.3l168.4-54.5 8.3-2.3 18.1-5.4c12.9-4 29-8.9 41.7-12.3l5.8-1.6a59.8 59.8 0 0 1 42.6.3c3.1 1 6.6 1.8 11 2.6 20.1 3.6 39.1 3.9 50.4-32.4 4-12.8 5.9-31.4 5.5-52.4-.2-10.3-.7-21.5-1.3-33.3-2.6-55.9-5.6-119.2 20.6-129 26.8-10 66.3 27.2 104.5 63.2 11.6 10.9 22.5 21.2 33.1 30.3 54.6 46.9 98.4 60 130.2 39 15-9.9 27-22.3 38.5-34.3 16.5-17.2 32.2-33.4 53.1-36.7 13.6-2.1 27.4 0 40.3 2.6 12.7 2.6 24.8 5 35.9 2.9a67 67 0 0 0 26.8-11.8c18.4-12.4 29.4-33.5 32.8-62.8.7-5.7 1.1-11.3 1.6-16.7C643.3 20.6 644.3 8 649 .6c4.1-6.5 9.8-9.1 17.4-8 11.7 1.7 27.6 18.8 44.4 37 20.4 22 43.6 47 63.6 49.1 3.7.4 7.4.2 11.1-.4 12.1-2.2 20.9-10.9 30.3-20.2 8.2-8.1 16.6-16.4 27.5-20 39-12.8 132.5-42.7 133.4-43 .5-.2 1 .2 1.2.8.2.6-.1 1.2-.5 1.3-.9.3-94.4 30.2-133.4 43-10.5 3.5-18.8 11.7-26.9 19.7-9.1 9-18.5 18.3-31.1 20.6-3.9.7-7.8.8-11.6.4-20.7-2.2-44.1-27.5-64.8-49.8-16.5-17.9-32.1-34.7-43.2-36.3-7-1-12 1.3-15.8 7.3-4.5 7-5.5 19.4-6.6 33.6-.4 5.4-.9 11-1.6 16.8-3.5 29.8-14.8 51.4-33.6 64.1a67.8 67.8 0 0 1-27.4 12c-11.5 2.1-23.6-.3-36.6-2.9-12.8-2.6-26.4-4.6-39.8-2.6-20.4 3.1-35.2 18.5-52.2 36.2a232.3 232.3 0 0 1-38.8 34.6 59.7 59.7 0 0 1-14.6 7.1c-30.8 10-70.2-5.5-117.6-46.3-10.7-9.1-22.1-19.9-33.2-30.4-37.7-35.7-76.7-72.5-102.6-62.9-24.9 9.3-22 71.8-19.4 127 .6 11.9 1.1 23.1 1.3 33.4.5 21.3-1.5 40.2-5.6 53.2-6.5 21-15.6 30.2-25.9 33.6z" clip-path="url(#x1)"/><path fill="#fff" d="M790.4 83.9a38.9 38.9 0 0 1-16.3 1.1c-20.6-3.3-43.9-28.5-64.6-50.8-17.2-18.6-33.4-36.1-44.5-37-7-.5-11.9 2.1-15.6 8.4-4 6.9-5.2 18-6.6 30.9-.7 6.4-1.4 13.1-2.5 20-4.9 30.1-18.9 50.1-41.7 59.6-8.1 3.4-18 5.4-31.2 6.4-9.8.7-20.1-.8-32.1-2.5l-5-.7a102 102 0 0 0-40.2.8c-19.8 5-34.9 20.2-50.8 36.2-12.6 12.6-25.6 25.7-42 35.2-29.9 17.2-71.2 3.2-126-43-9-7.5-18.4-16-27.6-24.2-38.1-34-77.5-69.2-103.7-58.2-23 9.6-21.3 67.8-19.7 119 .4 13.1.8 25.5.7 36.8-.1 25.9-4.9 43-7.8 50.9-12.8 34.9-41.3 26.5-56.6 22l-9.6-3.1-1-.3c-20-6.6-26.2-1.7-34.8 5l-3.3 2.5c-4.9 3.7-8.8 6.3-12.6 8.5a246.3 246.3 0 0 1-48.9 19.2c-1.9.4-7.9 2.3-7.9 2.3L-225.1 382c-.5.2-1.1-.2-1.3-.8-.2-.6.1-1.2.6-1.4l163.5-52.9c.3-.1 6.1-2 8.2-2.4a240 240 0 0 0 48.3-19c3.7-2.2 7.5-4.8 12.4-8.4l3.2-2.5c8.7-6.8 15.5-12.2 36.4-5.3l1.1.3 9.6 3.1c20.4 6 43.2 9.9 54.4-20.9 2.8-7.8 7.6-24.6 7.7-50.1 0-11.3-.3-23.6-.7-36.8-1.6-52-3.3-110.9 20.9-121.1 27.3-11.4 67.2 24.2 105.7 58.7 9.1 8.2 18.6 16.6 27.5 24.1 54.2 45.6 94.7 59.6 123.9 42.8a201.2 201.2 0 0 0 41.6-34.9c16.2-16.2 31.4-31.6 51.6-36.7 11.7-3 24.3-3.2 40.9-.9l5 .7c11.9 1.7 22.1 3.2 31.7 2.5 13-1 22.8-3 30.6-6.3 22.2-9.2 35.8-28.8 40.6-58.1 1.1-6.9 1.8-13.5 2.5-19.9 1.4-13.2 2.6-24.5 6.9-31.8 4-6.8 9.6-9.9 17.2-9.3 11.8.9 27.6 17.9 45.9 37.7 20.4 22 43.4 46.9 63.3 50.1 3.8.6 7.6.6 11.3 0 13-2.2 21.9-12.6 30.4-22.7 7.5-8.9 15.3-18 25.8-21.5a19518 19518 0 0 1 135-43.5c.5-.2 1.1.2 1.3.8.2.6-.1 1.2-.6 1.4-1 .3-99.7 31.9-134.9 43.5-10 3.4-17.3 11.9-25 21-7.8 9.4-15.8 18.8-27 22.4z" clip-path="url(#x1)"/><path fill="#fff" d="M790.6 88.6a35.4 35.4 0 0 1-16.8.7c-20.5-4.4-43.8-29.6-64.3-51.8C691.6 18.2 674.8-.1 663.8-.1c-7-.1-11.9 3-15.4 9.5A91.3 91.3 0 0 0 642 38c-1 7.4-1.9 15-3.6 22.9-6.4 30.7-23.6 48.9-51.1 53.9-11.1 2-21.5 2.2-33.7 1.9a262 262 0 0 1-22-1.9l-15.6-1.6c-13.7-1.2-26.6.2-40.7 4.3-19.5 5.8-34.3 20.6-50 36.3-13.4 13.4-27.2 27.3-44.7 35.8-1.9.9-3.8 1.7-5.7 2.3-34.4 11.2-78.8-20.1-114.1-49.1a1575 1575 0 0 1-20.6-17.3C201.3 92.4 161.1 58.3 134 70.9c-21.2 9.9-20.5 63.9-19.9 111.5.2 14.2.4 27.7 0 39.9-.6 21-3.9 37.7-9.6 48.5-10.3 19.6-31 23.2-61.5 10.6l-4.1-1.7-6.1-2.5c-18.4-8-26.8 3.2-34.8 14a100.1 100.1 0 0 1-56.8 37.2l-7.6 2.3h-.1L-225 382.1c-.6.2-1.2-.2-1.4-.9-.2-.7.1-1.3.6-1.5l158.6-51.4c.7-.2 6.5-2.1 7.9-2.4a98.6 98.6 0 0 0 55.5-36.4c8.1-10.9 17.3-23.2 37.1-14.8l6.1 2.5 4.2 1.7c29.8 12.3 49.1 9.1 59-9.7 5.5-10.4 8.7-26.8 9.3-47.4.4-12.1.2-25.6 0-39.8-.7-50.7-1.4-103.1 21.1-113.6 28.1-13.2 68.9 21.5 108.3 54.9a1575 1575 0 0 0 20.6 17.3c70.2 57.7 99.8 55.2 117.7 46.5 17.2-8.3 30.9-22.1 44.2-35.4 15.8-15.9 30.8-30.9 50.7-36.7 14.2-4.2 27.4-5.6 41.3-4.4l15.7 1.6c7.7.9 15 1.7 21.8 1.9 12.1.3 22.4.1 33.4-1.9 26.7-4.9 43.3-22.4 49.6-52.2 1.6-7.8 2.6-15.4 3.6-22.7a92 92 0 0 1 6.7-29.5 18 18 0 0 1 17-10.6c11.9.1 28.3 17.8 47.3 38.4 20.3 22 43.3 46.9 63.1 51.1 3.9.8 7.7 1 11.4.4 13.9-2.1 22.4-14 30.6-25.4 7.2-10 14-19.5 24.1-22.9C871.6 28.5 975.6-4.8 976.6-5.1c.6-.2 1.2.2 1.4.9.2.7-.1 1.3-.6 1.5-1 .3-105 33.6-136.5 44.1-9.6 3.2-16.2 12.4-23.2 22.2-7.5 10.4-15.2 21.1-27.1 25z" clip-path="url(#x1)"/><path fill="#fff" d="M790.8 93.2a32.6 32.6 0 0 1-17.2.2C753.2 88 730 62.9 709.5 40.7c-18.5-20.1-36-39-47-38.4-7 .4-11.9 3.8-15.2 10.7a99.4 99.4 0 0 0-6.2 26.6c-1.2 7.8-2.5 16.7-4.8 25.6-8 31.1-28.7 47.9-59.9 48.7a192 192 0 0 1-30.8-2.3l-6.1-.8-6.9-.9c-9.1-1.2-19.4-2.5-31.3-3-14.9-.6-28.3 2-41.1 7.7-17.6 7.9-32.1 21.9-46.2 35.5-15.2 14.6-30.8 29.7-50.5 37.2l-1.9.7c-31.4 10.2-74.1-21.1-111.8-51.3l-11.5-9.3c-40.6-32.8-82.5-66.8-110.8-52-19.6 10.2-19.8 58.2-19.9 104.6-.1 15.1-.1 29.4-.8 42.3-1.3 21.8-5.6 37.9-12.5 46.5-18.8 23.6-48.9 7.4-65.1-1.3-3.5-1.9-6.8-3.6-9.8-5-18.4-8.7-25.1 6.3-31.6 20.8-2.5 5.6-5.6 11-9.4 16.4-18 25.5-41.5 30.1-42.5 30.3l-7.4 2.3-153.5 49.8c-.6.2-1.2-.2-1.5-.9-.2-.7.1-1.4.7-1.6l153.7-49.8 7.6-2.4c1-.2 23.8-4.6 41.3-29.5a99.8 99.8 0 0 0 9.2-16c6.6-14.7 14.1-31.4 34.4-21.8 3 1.4 6.4 3.1 9.9 5 21.7 11.7 46.2 22.4 62.6 1.8 6.6-8.3 10.8-23.9 12-45.1.7-12.8.8-27.1.8-42.1.2-47.1.3-95.9 21.1-106.7 29.4-15.4 71.9 19.1 113.1 52.3l11.5 9.3c37.9 30.5 81 62 111.5 50.3 19.3-7.4 34.8-22.3 49.8-36.8 14.2-13.7 28.8-27.8 46.7-35.9 13-5.9 26.7-8.4 41.9-7.9 11.9.4 22.3 1.8 31.4 3l6.9.9 6.1.8a190 190 0 0 0 30.5 2.3c30.7-.8 50.2-16.6 58-47 2.2-8.7 3.5-17.5 4.7-25.3a98 98 0 0 1 6.4-27.3C649 4 654.4.2 662.2-.2c12-.7 29 17.8 48.8 39.2 20.3 21.9 43.2 46.8 62.9 52 4 1.1 7.9 1.3 11.5.8 14.9-2.1 22.9-15.3 30.7-28.1 6.5-10.7 12.7-20.9 22.5-24.2 27.8-9.3 137-44.3 138.1-44.6.6-.2 1.2.2 1.5.9.2.7-.1 1.4-.7 1.6-1.1.4-110.3 35.3-138 44.6-9.1 3.1-15.1 12.9-21.4 23.3-7.3 11.7-14.6 23.8-27.3 27.9z" clip-path="url(#x1)"/><path fill="#fff" d="M790.9 97.9c-1.6.5-3.3.9-5.1 1.1-23.1 3-51.4-27.8-76.4-55-19.2-20.8-37.3-40.5-48.2-39.1-15.2 2-17.6 16.4-20.9 36.4-1.4 8.6-3 18.4-6 28.1-9.7 31.9-33.4 47-68.6 43.5-9.7-1-18.5-3.1-27.9-5.3-14.8-3.5-30.2-7.2-51-6.9-37.4.4-61.3 23.5-84.4 45.8-17.5 16.9-34.1 32.9-55.7 38.7-28 7.6-65.8-22-105.9-53.4C197.1 97.6 152 62.3 121.6 80c-18.4 10.6-19.6 54.9-20.7 97.7-.9 39-1.9 75.8-15.6 87.3-20.4 17.3-48.2.9-68.5-11.1l-10.2-5.8c-5.5-2.9-10.1-3.5-14-1.6-7.7 3.7-11.4 16.3-14.5 29-9.7 39.3-35 53.9-47.1 56.2l-156 50.5c-.6.2-1.3-.2-1.6-1-.2-.7.1-1.5.7-1.7L-69.8 329h.1c11.6-2.2 36-16.4 45.5-54.5 3.3-13.2 7.2-26.5 15.8-30.6 4.4-2.1 9.8-1.5 15.9 1.7 3.1 1.6 6.6 3.7 10.3 5.9 19.7 11.7 46.8 27.6 66 11.3 12.8-10.9 13.8-47.1 14.8-85.3C99.8 134 101 89 120.5 77.7c31.6-18.3 77.4 17.5 121.7 52.1 39.6 31 77 60.2 103.9 52.9 21.1-5.7 37.4-21.5 54.8-38.2 23.4-22.6 47.6-45.9 85.8-46.4 21-.2 36.5 3.4 51.5 7 9.3 2.2 18.1 4.3 27.6 5.2 34.1 3.4 57.1-11.1 66.4-41.9 2.9-9.5 4.5-19.2 5.9-27.7 3.4-20.3 6-36.3 22.7-38.4 12-1.6 29.7 17.7 50.3 40 24.6 26.7 52.4 57 74.3 54.2 15.8-2 23.4-16.7 30.7-31 5.9-11.4 11.4-22.2 20.9-25.4 24-8.2 138.5-44.8 139.6-45.2.6-.2 1.3.2 1.5 1 .2.7-.1 1.5-.7 1.7-1.2.4-115.6 37-139.6 45.2-8.6 2.9-14 13.3-19.6 24.3-6.5 12.4-13.7 26.4-27.3 30.8z" clip-path="url(#x1)"/></svg>
